<svg width="256" height="256" viewBox="0 0 256 256" fill="none" xmlns="http://www.w3.org/2000/svg">
  <path d="M85 105C96.0457 105 105 96.0457 105 85C105 73.9543 96.0457 65 85 65C73.9543 65 65 73.9543 65 85C65 96.0457 73.9543 105 85 105Z" fill="black"/>
  <path fill-rule="evenodd" clip-rule="evenodd" d="M228 199.765C228 215.359 216.807 228 203 228H53C39.1929 228 28 215.359 28 199.765V128C28 128 83 173 128 128C173 83 228 128 228 128V199.765ZM191 171C191 182.046 182.046 191 171 191C159.954 191 151 182.046 151 171C151 159.954 159.954 151 171 151C182.046 151 191 159.954 191 171Z" fill="black"/>
  <path d="M28 128V199.765C28 215.359 39.1929 228 53 228H203C216.807 228 228 215.359 228 199.765V128M28 128V56.2353C28 40.6414 39.1929 28 53 28H203C216.807 28 228 40.6414 228 56.2353V128M28 128C28 128 83 173 128 128C173 83 228 128 228 128" stroke="black" stroke-width="16" stroke-linecap="round" stroke-linejoin="round"/>
</svg>